<svg xmlns="http://www.w3.org/2000/svg" xmlns:xlink="http://www.w3.org/1999/xlink" preserveAspectRatio="xMidYMid" width="499.698" height="499.707" viewBox="0 0 51.969 51.97">
  <defs>
    <style>
      .cls-1 {
        fill: #000;
        fill-rule: evenodd;
      }
    </style>
  </defs>
  <path d="M50.671,50.650 C49.406,51.914 47.567,52.301 45.872,51.660 L44.014,50.956 L50.977,43.996 L51.681,45.854 C52.323,47.548 51.936,49.386 50.671,50.650 ZM31.831,46.344 C31.432,46.194 31.070,45.960 30.769,45.659 L8.120,23.023 L11.314,19.831 L32.597,41.102 C33.185,41.689 34.138,41.688 34.726,41.100 C35.314,40.513 35.315,39.561 34.727,38.973 L13.444,17.702 L17.703,13.445 L38.986,34.716 C39.574,35.303 40.527,35.302 41.115,34.716 C41.703,34.128 41.704,33.176 41.116,32.588 L19.832,11.317 L23.027,8.125 L45.677,30.762 C45.978,31.062 46.212,31.423 46.363,31.821 L49.808,40.912 L40.927,49.787 L31.831,46.344 ZM10.257,16.647 L5.998,20.903 L1.743,16.650 C-0.604,14.305 -0.602,10.487 1.746,8.141 L8.135,1.755 C10.484,-0.592 14.303,-0.594 16.650,1.752 L20.905,6.005 L16.646,10.262 L10.257,16.647 Z" class="cls-1"/>
</svg>
