<?xml version="1.0" encoding="utf-8"?>
<!-- Generator: Adobe Illustrator 18.0.0, SVG Export Plug-In . SVG Version: 6.00 Build 0)  -->
<!DOCTYPE svg PUBLIC "-//W3C//DTD SVG 1.1//EN" "http://www.w3.org/Graphics/SVG/1.1/DTD/svg11.dtd">
<svg version="1.1" id="Arrow_1_" xmlns="http://www.w3.org/2000/svg" xmlns:xlink="http://www.w3.org/1999/xlink" x="0px" y="0px"
	 width="500px" height="500px" viewBox="0 0 500 500" enable-background="new 0 0 500 500" xml:space="preserve">
  <metadata>
    <?xpacket begin="﻿" id="W5M0MpCehiHzreSzNTczkc9d"?>
    <x:xmpmeta xmlns:x="adobe:ns:meta/" x:xmptk="Adobe XMP Core 5.6-c011 79.156380, 2014/06/19-23:40:37        ">
     <rdf:RDF xmlns:rdf="http://www.w3.org/1999/02/22-rdf-syntax-ns#">
      <rdf:Description rdf:about=""
        xmlns:xmpMM="http://ns.adobe.com/xap/1.0/mm/"
        xmlns:stEvt="http://ns.adobe.com/xap/1.0/sType/ResourceEvent#"
        xmlns:stRef="http://ns.adobe.com/xap/1.0/sType/ResourceRef#"
        xmlns:xmp="http://ns.adobe.com/xap/1.0/"
        xmlns:xmpRights="http://ns.adobe.com/xap/1.0/rights/"
        xmlns:dc="http://purl.org/dc/elements/1.1/"
       xmpMM:DocumentID="xmp.did:1b94e6d4528043aa44a6395f5661c307"
       xmpMM:OriginalDocumentID="xmp.did:4defb5c1d41d051953dcd520747d8ee6"
       xmpMM:InstanceID="xmp.iid:1b94e6d4528043aa44a6395f5661c307"
       xmp:ModifyDate="2015-04-09T16:40:03+02:00"
       xmp:MetadataDate="2015-04-09T16:40:03+02:00"
       xmpRights:Marked="True"
       xmpRights:WebStatement="http://www.adobe.com/legal/general-terms.html">
       <xmpMM:History>
        <rdf:Seq>
         <rdf:li
          stEvt:action="saved"
          stEvt:instanceID="xmp.iid:4defb5c1d41d051953dcd520747d8ee6"
          stEvt:when="2015-04-09T16:29:17+02:00"/>
         <rdf:li
          stEvt:action="copied"
          stEvt:instanceID="xmp.iid:1b94e6d4528043aa44a6395f5661c307"
          stEvt:when="2015-04-09T16:40:03+02:00"/>
        </rdf:Seq>
       </xmpMM:History>
       <xmpMM:DerivedFrom
        stRef:documentID="xmp.did:4defb5c1d41d051953dcd520747d8ee6"
        stRef:originalDocumentID="xmp.did:4defb5c1d41d051953dcd520747d8ee6"
        stRef:instanceID="xmp.iid:4defb5c1d41d051953dcd520747d8ee6"
        stRef:lastModifyDate="2015-04-09T16:29:17+02:00"/>
       <xmpRights:UsageTerms>
        <rdf:Alt>
         <rdf:li xml:lang="x-default">This work is licensed under the Adobe General Terms of Use http://www.adobe.com/legal/general-terms.html.</rdf:li>
        </rdf:Alt>
       </xmpRights:UsageTerms>
       <dc:publisher>
        <rdf:Bag>
         <rdf:li>Adobe Systems Incorporated</rdf:li>
        </rdf:Bag>
       </dc:publisher>
      </rdf:Description>
     </rdf:RDF>
    </x:xmpmeta>
    <?xpacket end="r"?>
  </metadata>
<g id="_x38_40-stopwatch-2-toolbar-selected_x40_2x.png">
	<g>
		<path d="M284.1,48.3V22.7h11.4c6.3,0,11.4-5.1,11.4-11.4S301.7,0,295.5,0h-90.9c-6.3,0-11.4,5.1-11.4,11.4s5.1,11.4,11.4,11.4
			h11.4v25.6c-31.6,4.8-61.1,16-87,32.4l-17.4-17.4c-8.9-8.9-23.3-8.9-32.1,0L63.3,79.4c-8.9,8.9-8.9,23.3,0,32.1l13.9,13.9
			c-33.9,39.7-54.4,91.1-54.4,147.4C22.7,398.2,124.5,500,250,500s227.3-101.8,227.3-227.3C477.3,158.8,393.4,64.8,284.1,48.3z
			 M92.5,181.8c3.1-5.4,10.1-7.3,15.5-4.2c5.4,3.1,7.3,10.1,4.2,15.5c-3.1,5.4-10.1,7.3-15.5,4.2C91.3,194.2,89.4,187.3,92.5,181.8z
			 M79.5,284.1c-6.3,0-11.4-5.1-11.4-11.4c0-6.3,5.1-11.4,11.4-11.4c6.3,0,11.4,5.1,11.4,11.4C90.9,279,85.8,284.1,79.5,284.1z
			 M108.1,367.8c-5.4,3.1-12.4,1.3-15.5-4.2c-3.1-5.4-1.3-12.4,4.2-15.5c5.4-3.1,12.4-1.3,15.5,4.2S113.5,364.7,108.1,367.8z
			 M325.4,119.4c3.1-5.4,10.1-7.3,15.5-4.2s7.3,10.1,4.2,15.5s-10.1,7.3-15.5,4.2C324.1,131.8,322.2,124.9,325.4,119.4z M250,90.9
			c6.3,0,11.4,5.1,11.4,11.4c0,6.3-5.1,11.4-11.4,11.4s-11.4-5.1-11.4-11.4C238.6,96,243.7,90.9,250,90.9z M174.6,426
			c-3.1,5.4-10.1,7.3-15.5,4.2s-7.3-10.1-4.2-15.5c3.1-5.4,10.1-7.3,15.5-4.2S177.8,420.6,174.6,426z M170.5,135
			c-5.4,3.1-12.4,1.3-15.5-4.2c-3.1-5.4-1.3-12.4,4.2-15.5c5.4-3.1,12.4-1.3,15.5,4.2C177.8,124.9,175.9,131.8,170.5,135z
			 M250,454.5c-6.3,0-11.4-5.1-11.4-11.4c0-6.3,5.1-11.4,11.4-11.4s11.4,5.1,11.4,11.4C261.4,449.5,256.3,454.5,250,454.5z
			 M340.9,430.2c-5.4,3.1-12.4,1.3-15.5-4.2s-1.3-12.4,4.2-15.5c5.4-3.1,12.4-1.3,15.5,4.2S346.4,427,340.9,430.2z M349.2,189.6
			l-68.5,68.5c2.1,4.4,3.4,9.4,3.4,14.6c0,18.8-15.3,34.1-34.1,34.1s-34.1-15.3-34.1-34.1c0-18.8,15.3-34.1,34.1-34.1
			c5.2,0,10.2,1.3,14.6,3.4l68.5-68.5c4.4-4.4,11.6-4.4,16.1,0C353.6,178,353.6,185.2,349.2,189.6z M407.5,363.6
			c-3.1,5.4-10.1,7.3-15.5,4.2s-7.3-10.1-4.2-15.5s10.1-7.3,15.5-4.2S410.6,358.2,407.5,363.6z M403.3,197.3
			c-5.4,3.1-12.4,1.3-15.5-4.2c-3.1-5.4-1.3-12.4,4.2-15.5s12.4-1.3,15.5,4.2C410.6,187.2,408.7,194.2,403.3,197.3z M420.5,284.1
			c-6.3,0-11.4-5.1-11.4-11.4c0-6.3,5.1-11.4,11.4-11.4c6.3,0,11.4,5.1,11.4,11.4C431.8,279,426.7,284.1,420.5,284.1z"/>
	</g>
</g>
</svg>
